<svg id="visual" viewBox="0 0 900 600" width="900" height="600" xmlns="http://www.w3.org/2000/svg" xmlns:xlink="http://www.w3.org/1999/xlink" version="1.1"><path d="M0 209L21.5 214.5C43 220 86 231 128.8 225.3C171.7 219.7 214.3 197.3 257.2 197C300 196.7 343 218.3 385.8 214.7C428.7 211 471.3 182 514.2 173.8C557 165.7 600 178.3 642.8 183.2C685.7 188 728.3 185 771.2 191.3C814 197.7 857 213.3 878.5 221.2L900 229L900 0L878.5 0C857 0 814 0 771.2 0C728.3 0 685.7 0 642.8 0C600 0 557 0 514.2 0C471.3 0 428.7 0 385.8 0C343 0 300 0 257.2 0C214.3 0 171.7 0 128.8 0C86 0 43 0 21.5 0L0 0Z" fill="#1c1e2c"></path><path d="M0 166L21.5 170.3C43 174.7 86 183.3 128.8 177.7C171.7 172 214.3 152 257.2 147.2C300 142.3 343 152.7 385.8 164.5C428.7 176.3 471.3 189.7 514.2 191C557 192.3 600 181.7 642.8 170.3C685.7 159 728.3 147 771.2 142C814 137 857 139 878.5 140L900 141L900 0L878.5 0C857 0 814 0 771.2 0C728.3 0 685.7 0 642.8 0C600 0 557 0 514.2 0C471.3 0 428.7 0 385.8 0C343 0 300 0 257.2 0C214.3 0 171.7 0 128.8 0C86 0 43 0 21.5 0L0 0Z" fill="#202233"></path><path d="M0 106L21.5 102.8C43 99.7 86 93.3 128.8 91.7C171.7 90 214.3 93 257.2 102.8C300 112.7 343 129.3 385.8 138.2C428.7 147 471.3 148 514.2 139C557 130 600 111 642.8 106.2C685.7 101.3 728.3 110.7 771.2 118.5C814 126.3 857 132.7 878.5 135.8L900 139L900 0L878.5 0C857 0 814 0 771.2 0C728.3 0 685.7 0 642.8 0C600 0 557 0 514.2 0C471.3 0 428.7 0 385.8 0C343 0 300 0 257.2 0C214.3 0 171.7 0 128.8 0C86 0 43 0 21.5 0L0 0Z" fill="#25273b"></path><path d="M0 91L21.5 92.7C43 94.3 86 97.7 128.8 101.3C171.7 105 214.3 109 257.2 110.8C300 112.7 343 112.3 385.8 112.2C428.7 112 471.3 112 514.2 104.3C557 96.7 600 81.3 642.8 75.2C685.7 69 728.3 72 771.2 71.8C814 71.7 857 68.3 878.5 66.7L900 65L900 0L878.5 0C857 0 814 0 771.2 0C728.3 0 685.7 0 642.8 0C600 0 557 0 514.2 0C471.3 0 428.7 0 385.8 0C343 0 300 0 257.2 0C214.3 0 171.7 0 128.8 0C86 0 43 0 21.5 0L0 0Z" fill="#35374e"></path><path d="M0 27L21.5 33.8C43 40.7 86 54.3 128.8 59.8C171.7 65.3 214.3 62.7 257.2 60C300 57.3 343 54.7 385.8 49.7C428.7 44.7 471.3 37.3 514.2 34.2C557 31 600 32 642.8 37.8C685.7 43.7 728.3 54.3 771.2 59.3C814 64.3 857 63.7 878.5 63.3L900 63L900 0L878.5 0C857 0 814 0 771.2 0C728.3 0 685.7 0 642.8 0C600 0 557 0 514.2 0C471.3 0 428.7 0 385.8 0C343 0 300 0 257.2 0C214.3 0 171.7 0 128.8 0C86 0 43 0 21.5 0L0 0Z" fill="#464862"></path></svg>